<svg width="15" height="14" viewBox="0 0 15 14" fill="none" xmlns="http://www.w3.org/2000/svg">
<path d="M4.37988 10.1131L4.37995 10.1132C5.12906 10.7996 5.87729 11.3822 6.44748 11.7988C6.73204 12.0066 6.97087 12.1721 7.14149 12.2873C7.22678 12.345 7.29482 12.3899 7.34278 12.4212C7.38557 12.4491 7.40896 12.4639 7.41437 12.4673C7.41539 12.4679 7.41577 12.4682 7.41553 12.468L7.42662 12.4748L7.42655 12.4749L7.73332 12.6701L8.04008 12.4749L8.04022 12.4748C8.09141 12.4423 9.58223 11.4902 11.0868 10.1131H4.37988ZM4.37988 10.1131C3.47528 9.28445 2.76336 8.48184 2.25505 7.72992M4.37988 10.1131L2.25505 7.72992M2.25505 7.72992C1.93467 7.25534 1.69124 6.79603 1.52486 6.36515L2.25505 7.72992ZM13.1484 2.35544L13.149 2.35598L1.52557 3.50161C1.71174 3.07247 1.98111 2.6834 2.3187 2.35657L2.3187 2.35658L2.31966 2.35565C2.6606 2.02431 3.05699 1.76437 3.49796 1.58323L3.49871 1.58292C3.95462 1.39501 4.43728 1.29999 4.93883 1.29999C5.63366 1.29999 6.30993 1.48873 6.89661 1.84385L6.89663 1.84386C7.037 1.92882 7.16979 2.02179 7.29527 2.12277L7.73415 2.47599L8.17303 2.12277C8.29851 2.02179 8.4313 1.92882 8.57166 1.84386L8.57168 1.84385C9.15837 1.48873 9.83464 1.29999 10.5295 1.29999L10.5311 1.29999C11.0249 1.29886 11.5139 1.39507 11.9696 1.58291L11.9705 1.58328C12.4097 1.76359 12.8095 2.02581 13.1484 2.35544ZM14.5849 3.22308L13.9427 3.50161C13.9428 3.50181 13.9429 3.50201 13.943 3.50221C13.943 3.50229 13.9431 3.50237 13.9431 3.50245L14.5849 3.22308ZM13.2114 7.73026C12.7031 8.48203 11.9913 9.28446 11.087 10.1129L13.2114 7.73026ZM1.23333 4.90841C1.23333 4.4208 1.33184 3.9483 1.52554 3.50166L1.52484 6.3651C1.32676 5.85116 1.23333 5.36253 1.23333 4.90841Z" stroke="#ECECEC" stroke-width="1.4"/>
</svg>
